#!OML:ASF H:\GeneralSubjects\Female5\Project 1\Capture day 1\Session 1\Female5.ASF
:FULLY-SPECIFIED
:DEGREES
17
root -12.072 16.2092 -5.26015 -114.778 78.2468 -125.857
lowerback 6.84498 1.20149 7.04685
upperback -9.49201 3.79303 5.41756
thorax -14.3715 1.64416 1.32139
lowerneck -16.241 -5.38425 -4.17762
upperneck 28.9526 -4.54859 -4.25018
head 12.2792 -2.80425 -1.53647
rclavicle -1.25234e-014 -1.19271e-014
rhumerus -53.2459 24.5259 -81.3886
rradius 80.2112
rwrist -13.2987
rhand -32.3269 -13.0314
rfingers 7.12502
rthumb -5.5644 -42.9383
lclavicle -1.25234e-014 -1.19271e-014
lhumerus -73.5397 -11.1049 93.0124
lradius 91.3199
lwrist -6.78738
lhand -36.7049 33.8708
lfingers 7.12502
lthumb -9.78995 63.6232
rfemur 7.92474 -6.47052 41.8141
rtibia 38.6853
rfoot 5.98718 -26.7569
rtoes -9.81475
lfemur -39.2168 -20.0137 -8.14935
ltibia 18.2546
lfoot 4.05752 -14.2832
ltoes -61.0003
18
root -11.2788 15.9958 -5.28562 -113.268 78.9161 -123.184
lowerback 7.68686 1.21 6.55253
upperback -9.19977 3.72992 5.24194
thorax -14.5564 1.62762 1.38846
lowerneck -15.4952 -5.19443 -3.58717
upperneck 28.0882 -4.72967 -3.70254
head 11.7709 -2.75636 -1.40842
rclavicle 1.12313e-014 4.21423e-014
rhumerus -53.846 23.6336 -82.644
rradius 76.7464
rwrist -11.8803
rhand -31.6379 -13.4288
rfingers 7.12502
rthumb -4.89909 -43.3522
lclavicle 1.12313e-014 4.21423e-014
lhumerus -71.7017 -11.5408 93.487
lradius 91.1413
lwrist -7.50304
lhand -36.3029 34.6775
lfingers 7.12502
lthumb -9.40209 64.4478
rfemur 6.71925 -8.26879 40.2948
rtibia 45.4695
rfoot -3.80249 -28.2072
rtoes -3.93434
lfemur -36.7122 -17.785 -10.7948
ltibia 21.9204
lfoot 8.15363 -14.3012
ltoes -59.0105
19
root -10.5108 15.7564 -5.30611 -114.839 80.4833 -123.434
lowerback 9.29074 1.11142 5.19129
upperback -9.03854 3.38686 4.69659
thorax -15.3997 1.521 1.57454
lowerneck -15.1302 -4.80864 -2.52422
upperneck 28.023 -4.54104 -3.58238
head 11.633 -2.54215 -1.4991
rclavicle -2.50469e-014 -8.74653e-015
rhumerus -54.571 22.2061 -83.9631
rradius 72.6399
rwrist -10.1149
rhand -31.4599 -14.1191
rfingers 7.12502
rthumb -4.72724 -44.0464
lclavicle -2.50469e-014 -8.74653e-015
lhumerus -69.5523 -11.7792 93.9495
lradius 90.3379
lwrist -8.47757
lhand -36.097 35.1776
lfingers 7.12502
lthumb -9.20336 64.9568
rfemur 5.16533 -9.36233 38.0026
rtibia 51.1075
rfoot -8.97315 -27.3285
rtoes 3.57774
lfemur -34.9745 -16.2428 -14.6152
ltibia 27.6956
lfoot 2.29895 -11.1781
ltoes -59.1081
20
root -9.74657 15.5291 -5.3246 -119.07 82.5616 -126.576
lowerback 11.0405 0.987344 3.00672
upperback -9.16588 2.83211 4.07753
thorax -16.7337 1.41975 2.21024
lowerneck -14.9666 -4.21279 -0.904665
upperneck 28.6222 -3.97889 -4.00933
head 11.773 -2.15561 -1.8569
rclavicle -4.96962e-016 5.725e-014
rhumerus -56.1922 20.907 -85.0574
rradius 68.7409
rwrist -8.59172
rhand -31.6893 -14.8531
rfingers 7.12502
rthumb -4.94869 -44.7754
lclavicle -4.96962e-016 5.725e-014
lhumerus -67.421 -11.9193 94.4589
lradius 88.9199
lwrist -9.979
lhand -36.1335 36.0715
lfingers 7.12502
lthumb -9.23862 65.8491
rfemur 2.66524 -9.91537 35.332
rtibia 55.449
rfoot -12.0951 -24.5975
rtoes -1.41098
lfemur -32.3358 -16.1784 -18.5103
ltibia 31.8039
lfoot 4.47505 -13.2564
ltoes -56.0473
21
root -9.01757 15.4032 -5.33681 -172.922 85.4399 -180.773
lowerback 11.3047 0.790318 -3.12051
upperback -9.35196 1.06724 2.32227
thorax -17.1616 1.16525 4.12167
lowerneck -15.1877 -3.83481 0.231628
upperneck 28.8958 -3.74868 -4.02902
head 11.8946 -1.92998 -2.03734
rclavicle 4.57205e-015 1.03368e-014
rhumerus -57.6395 19.3287 -85.4487
rradius 65.6173
rwrist -7.50923
rhand -31.4603 -15.3704
rfingers 7.12502
rthumb -4.72757 -45.2977
lclavicle 4.57205e-015 1.03368e-014
lhumerus -64.5747 -12.8733 94.7154
lradius 87.4172
lwrist -12.1073
lhand -36.2547 36.5702
lfingers 7.12502
lthumb -9.35561 66.3426
rfemur -1.79946 -11.8503 28.0657
rtibia 59.21
rfoot -12.8204 -22.0529
rtoes -6.76893
lfemur -28.7797 -16.809 -27.0798
ltibia 32.9433
lfoot 5.77257 -13.7497
ltoes -52.1962
22
root -8.33742 15.3584 -5.3327 -198.413 85.1429 -206.741
lowerback 12.9654 0.566842 -5.07112
upperback -10.14 0.173445 1.46815
thorax -19.2311 1.01628 4.50312
lowerneck -15.167 -3.3473 1.92553
upperneck 29.5951 -3.35666 -4.46329
head 12.1224 -1.60217 -2.45061
rclavicle 5.36719e-015 3.97569e-015
rhumerus -60.4293 17.7739 -86.078
rradius 63.5532
rwrist -7.05699
rhand -31.0642 -15.5216
rfingers 7.12502
rthumb -4.34511 -45.457
lclavicle 5.36719e-015 3.97569e-015
lhumerus -62.9951 -14.295 94.8859
lradius 86.7207
lwrist -14.4803
lhand -36.1287 35.2266
lfingers 7.12502
lthumb -9.23401 65.0044
rfemur -8.66353 -12.447 25.9871
rtibia 63.7731
rfoot -15.8645 -18.6144
rtoes -8.95958
lfemur -26.0798 -15.6568 -30.2089
ltibia 33.707
lfoot 6.75379 -14.5419
ltoes -47.716
23
root -7.65187 15.3784 -5.31228 -190.646 86.0081 -199.449
lowerback 12.4552 0.330247 -3.73591
upperback -9.86929 0.130407 1.38742
thorax -18.4869 0.775417 3.65416
lowerneck -15.8252 -3.0914 2.01324
upperneck 29.5117 -3.27378 -3.78297
head 12.2444 -1.48347 -2.21447
rclavicle 8.39865e-015 9.14409e-015
rhumerus -61.3383 16.3826 -86.1131
rradius 62.1889
rwrist -7.31606
rhand -30.6086 -15.2992
rfingers 7.12502
rthumb -3.90519 -45.2431
lclavicle 8.39865e-015 9.14409e-015
lhumerus -59.3659 -16.2432 94.5998
lradius 86.3437
lwrist -15.9925
lhand -35.9308 33.3608
lfingers 7.12502
lthumb -9.04303 63.1469
rfemur -16.1348 -11.3425 27.9609
rtibia 67.5641
rfoot -17.9918 -16.785
rtoes -14.5077
lfemur -23.3387 -13.5892 -29.4494
ltibia 33.4214
lfoot 7.01991 -15.8086
ltoes -42.2802
24
root -6.95433 15.4196 -5.28655 -192.087 87.0902 -200.934
lowerback 12.6113 0.2655 -2.92465
upperback -9.64684 0.139372 1.0844
thorax -18.2842 0.627903 2.84
lowerneck -16.0255 -2.70875 2.52898
upperneck 29.3504 -3.01836 -3.4137
head 12.2292 -1.2744 -2.12793
rclavicle 1.24737e-014 -5.56597e-015
rhumerus -62.6834 15.266 -86.5946
rradius 61.3142
rwrist -7.88782
rhand -29.8351 -15.0386
rfingers 7.12502
rthumb -3.15823 -44.995
lclavicle 1.24737e-014 -5.56597e-015
lhumerus -56.0018 -18.4332 94.2781
lradius 86.1706
lwrist -16.936
lhand -35.8397 32.154
lfingers 7.12502
lthumb -8.95516 61.9439
rfemur -22.6486 -9.20682 29.0703
rtibia 68.8889
rfoot -19.5805 -16.145
rtoes -15.1718
lfemur -19.4583 -11.653 -29.3347
ltibia 32.3286
lfoot 6.77902 -17.4066
ltoes -35.6381
25
root -6.24019 15.4757 -5.2619 -202.304 88.0511 -210.871
lowerback 13.0491 0.198113 -2.30607
upperback -9.5016 0.0914712 0.718607
thorax -18.3741 0.484654 2.08239
lowerneck -15.4258 -2.27816 3.60644
upperneck 28.7722 -2.54066 -3.98156
head 11.8642 -1.02998 -2.42995
rclavicle 7.37988e-015 5.1684e-015
rhumerus -64.3225 14.3941 -87.2758
rradius 60.563
rwrist -8.52659
rhand -28.9047 -14.8726
rfingers 7.12502
rthumb -2.25972 -44.8404
lclavicle 7.37988e-015 5.1684e-015
lhumerus -53.0168 -20.6829 93.983
lradius 85.985
lwrist -18.4037
lhand -36.2249 31.2335
lfingers 7.12502
lthumb -9.32681 61.0072
rfemur -27.9541 -6.70076 29.5629
rtibia 68.0265
rfoot -21.8236 -15.5886
rtoes -12.8276
lfemur -14.8819 -10.629 -29.6418
ltibia 30.6957
lfoot 5.57285 -19.257
ltoes -28.6482
26
root -5.49877 15.5467 -5.24063 -211.35 89.0149 -219.68
lowerback 13.1482 0.0633396 -1.22231
upperback -9.41667 0.091835 0.487182
thorax -18.3184 0.31939 1.20296
lowerneck -14.9725 -1.91571 4.5322
upperneck 28.7956 -2.05332 -4.62445
head 11.7791 -0.785575 -2.75232
rclavicle -2.16178e-015 7.7526e-015
rhumerus -65.9897 13.7041 -87.7747
rradius 59.7964
rwrist -8.9245
rhand -28.1677 -14.6398
rfingers 7.12502
rthumb -1.54785 -44.6139
lclavicle -2.16178e-015 7.7526e-015
lhumerus -50.2956 -22.6941 93.7315
lradius 85.7297
lwrist -20.2213
lhand -36.3759 28.0414
lfingers 7.12502
lthumb -9.47253 57.8085
rfemur -32.2134 -4.06074 30.2513
rtibia 64.9261
rfoot -22.6758 -16.4865
rtoes -16.0132
lfemur -9.99399 -10.3623 -29.6669
ltibia 28.4267
lfoot 3.20286 -20.7151
ltoes -21.3933
